<svg xmlns="http://www.w3.org/2000/svg" xmlns:xlink="http://www.w3.org/1999/xlink" width="100.76" height="40.02" viewBox="0 0 100.76 40.02">
  <defs>
    <clipPath id="clip-path">
      <rect id="Rectangle_2928" data-name="Rectangle 2928" width="100.76" height="40.02" transform="translate(-6497 -8087)" fill="#fff" stroke="#707070" stroke-width="1"/>
    </clipPath>
    <filter id="Path_1135" x="22.676" y="28.077" width="17.635" height="18.98" filterUnits="userSpaceOnUse">
      <feOffset dy="2" input="SourceAlpha"/>
      <feGaussianBlur stdDeviation="2" result="blur"/>
      <feFlood flood-opacity="0.161"/>
      <feComposite operator="in" in2="blur"/>
      <feComposite in="SourceGraphic"/>
    </filter>
    <filter id="Path_1136" x="31.002" y="28.076" width="19.467" height="18.98" filterUnits="userSpaceOnUse">
      <feOffset dy="2" input="SourceAlpha"/>
      <feGaussianBlur stdDeviation="2" result="blur-2"/>
      <feFlood flood-opacity="0.161"/>
      <feComposite operator="in" in2="blur-2"/>
      <feComposite in="SourceGraphic"/>
    </filter>
    <filter id="Path_1137" x="41.158" y="28.223" width="19.468" height="18.98" filterUnits="userSpaceOnUse">
      <feOffset dy="2" input="SourceAlpha"/>
      <feGaussianBlur stdDeviation="2" result="blur-3"/>
      <feFlood flood-opacity="0.161"/>
      <feComposite operator="in" in2="blur-3"/>
      <feComposite in="SourceGraphic"/>
    </filter>
    <filter id="Path_1138" x="51.315" y="28.077" width="19.638" height="18.98" filterUnits="userSpaceOnUse">
      <feOffset dy="2" input="SourceAlpha"/>
      <feGaussianBlur stdDeviation="2" result="blur-4"/>
      <feFlood flood-opacity="0.161"/>
      <feComposite operator="in" in2="blur-4"/>
      <feComposite in="SourceGraphic"/>
    </filter>
    <filter id="Path_1139" x="61.642" y="28.076" width="16.675" height="18.98" filterUnits="userSpaceOnUse">
      <feOffset dy="2" input="SourceAlpha"/>
      <feGaussianBlur stdDeviation="2" result="blur-5"/>
      <feFlood flood-opacity="0.161"/>
      <feComposite operator="in" in2="blur-5"/>
      <feComposite in="SourceGraphic"/>
    </filter>
    <filter id="Path_1140" x="14" y="31.712" width="16.679" height="12.669" filterUnits="userSpaceOnUse">
      <feOffset dy="2" input="SourceAlpha"/>
      <feGaussianBlur stdDeviation="2" result="blur-6"/>
      <feFlood flood-opacity="0.161"/>
      <feComposite operator="in" in2="blur-6"/>
      <feComposite in="SourceGraphic"/>
    </filter>
    <filter id="Path_1142" x="33.28" y="-3.01" width="28.38" height="38.6" filterUnits="userSpaceOnUse">
      <feOffset dy="2" input="SourceAlpha"/>
      <feGaussianBlur stdDeviation="2" result="blur-7"/>
      <feFlood flood-opacity="0.161"/>
      <feComposite operator="in" in2="blur-7"/>
      <feComposite in="SourceGraphic"/>
    </filter>
    <filter id="Path_1143" x="49.659" y="-3.013" width="36.456" height="38.562" filterUnits="userSpaceOnUse">
      <feOffset dy="2" input="SourceAlpha"/>
      <feGaussianBlur stdDeviation="2" result="blur-8"/>
      <feFlood flood-opacity="0.161"/>
      <feComposite operator="in" in2="blur-8"/>
      <feComposite in="SourceGraphic"/>
    </filter>
    <filter id="Path_1144" x="-5" y="-3.011" width="46.4" height="38.56" filterUnits="userSpaceOnUse">
      <feOffset dy="2" input="SourceAlpha"/>
      <feGaussianBlur stdDeviation="2" result="blur-9"/>
      <feFlood flood-opacity="0.161"/>
      <feComposite operator="in" in2="blur-9"/>
      <feComposite in="SourceGraphic"/>
    </filter>
    <filter id="Rectangle_2518" x="24.715" y="0.738" width="16.56" height="34.852" filterUnits="userSpaceOnUse">
      <feOffset dy="2" input="SourceAlpha"/>
      <feGaussianBlur stdDeviation="2" result="blur-10"/>
      <feFlood flood-opacity="0.161"/>
      <feComposite operator="in" in2="blur-10"/>
      <feComposite in="SourceGraphic"/>
    </filter>
    <filter id="Path_1145" x="68.675" y="-3.011" width="37.585" height="38.601" filterUnits="userSpaceOnUse">
      <feOffset dy="2" input="SourceAlpha"/>
      <feGaussianBlur stdDeviation="2" result="blur-11"/>
      <feFlood flood-opacity="0.161"/>
      <feComposite operator="in" in2="blur-11"/>
      <feComposite in="SourceGraphic"/>
    </filter>
  </defs>
  <g id="RED" transform="translate(6497 8087)" clip-path="url(#clip-path)">
    <g id="Group_2786" data-name="Group 2786" transform="translate(6700.015 8279.308)">
      <g id="Group_3551" data-name="Group 3551" transform="translate(-0.414)">
        <g transform="matrix(1, 0, 0, 1, -13196.6, -16366.31)" filter="url(#Path_1135)">
          <path id="Path_1135-2" data-name="Path 1135" d="M682.511,456.329a4.185,4.185,0,0,0-.895-.852,1.766,1.766,0,0,0-.264-.169,2.66,2.66,0,0,0,1.221-.6,1.526,1.526,0,0,0,.559-1.2,1.429,1.429,0,0,0-.427-1.04,2.356,2.356,0,0,0-1.109-.581,6.786,6.786,0,0,0-1.709-.159h-1.719v6.976h1.292v-3.212l.183.009c1.912,0,2.94,2.809,3.042,3.2H683.8a11.674,11.674,0,0,0-1.292-2.378m-1.629-1.432c-.1.028-.213.066-.335.091a1.677,1.677,0,0,1-.366.056h-.723v-2.809l.326.009c.855,0,1.373.091,1.577.327a1.437,1.437,0,0,1,.356,1.03,1.817,1.817,0,0,1-.1.627,1.087,1.087,0,0,1-.275.393,1.225,1.225,0,0,1-.457.273" transform="translate(-649.49 -419.65)" fill="#040504"/>
        </g>
        <g transform="matrix(1, 0, 0, 1, -13196.6, -16366.31)" filter="url(#Path_1136)">
          <path id="Path_1136-2" data-name="Path 1136" d="M708.6,452.656a3.736,3.736,0,0,0-2.6-.926,3.632,3.632,0,0,0-2.584.935,3.113,3.113,0,0,0-1.128,2.5,3.21,3.21,0,0,0,1.119,2.563,3.537,3.537,0,0,0,2.6.972,3.592,3.592,0,0,0,2.646-.973,3.222,3.222,0,0,0,1.1-2.526,3.128,3.128,0,0,0-1.149-2.543m-.855,4.828a2.01,2.01,0,0,1-1.668.739,1.928,1.928,0,0,1-1.695-.739,3.441,3.441,0,0,1-.652-2.283,3.372,3.372,0,0,1,.652-2.255,1.833,1.833,0,0,1,1.618-.748,2.053,2.053,0,0,1,1.76.767,4.959,4.959,0,0,1-.01,4.519" transform="translate(-665.28 -419.65)" fill="#040504"/>
        </g>
        <g transform="matrix(1, 0, 0, 1, -13196.6, -16366.31)" filter="url(#Path_1137)">
          <path id="Path_1137-2" data-name="Path 1137" d="M739.514,452.656a3.735,3.735,0,0,0-2.6-.926,3.631,3.631,0,0,0-2.584.935,3.114,3.114,0,0,0-1.129,2.5,3.21,3.21,0,0,0,1.119,2.563,3.543,3.543,0,0,0,2.6.972,3.591,3.591,0,0,0,2.645-.972,3.22,3.22,0,0,0,1.1-2.526,3.128,3.128,0,0,0-1.149-2.543m-.855,4.828a2.012,2.012,0,0,1-1.668.739,1.928,1.928,0,0,1-1.695-.739,3.44,3.44,0,0,1-.652-2.283,3.372,3.372,0,0,1,.652-2.255,1.833,1.833,0,0,1,1.617-.748,2.053,2.053,0,0,1,1.759.767,4.959,4.959,0,0,1-.009,4.519" transform="translate(-686.04 -419.5)" fill="#040504"/>
        </g>
        <g transform="matrix(1, 0, 0, 1, -13196.6, -16366.31)" filter="url(#Path_1138)">
          <path id="Path_1138-2" data-name="Path 1138" d="M770.929,458.71v-5.668l-2.716,5.668H767.8l-2.7-5.668v5.668h-.5v-6.98h1.22l2.6,5.415,2.593-5.415h1.221v6.98Z" transform="translate(-707.29 -419.65)" fill="#040504"/>
        </g>
        <g transform="matrix(1, 0, 0, 1, -13196.6, -16366.31)" filter="url(#Path_1139)">
          <path id="Path_1139-2" data-name="Path 1139" d="M798.056,458.719a3.165,3.165,0,0,1-2.105-1.282l.366-.374a2.4,2.4,0,0,0,1.709,1.189,1.418,1.418,0,0,0,1.088-.243,1.1,1.1,0,0,0,.458-.748.936.936,0,0,0-.231-.758,4.1,4.1,0,0,0-1.18-.8,8.643,8.643,0,0,1-1.21-.711,1.86,1.86,0,0,1-.631-.758,1.688,1.688,0,0,1,.548-2.107,2.067,2.067,0,0,1,1.454-.346,2.667,2.667,0,0,1,.865.225,2.456,2.456,0,0,1,.854.758l-.428.319a2.338,2.338,0,0,0-.264-.346,1.571,1.571,0,0,0-1.017-.5,1.13,1.13,0,0,0-.854.187.9.9,0,0,0-.326.58.843.843,0,0,0,.244.7,4.814,4.814,0,0,0,1.19.8,14.08,14.08,0,0,1,1.252.727,1.789,1.789,0,0,1,.62.727,1.937,1.937,0,0,1-.649,2.367,2.5,2.5,0,0,1-1.75.374" transform="translate(-728.31 -419.69)" fill="#040504"/>
        </g>
        <g transform="matrix(1, 0, 0, 1, -13196.6, -16366.31)" filter="url(#Path_1140)">
          <path id="Path_1140-2" data-name="Path 1140" d="M657.432,461.29h-3.851a.334.334,0,1,1,0-.649h3.851a.334.334,0,1,1,0,.649" transform="translate(-633.17 -424.92)" fill="#040504"/>
        </g>
        <path id="Path_1141" data-name="Path 1141" d="M822.565,461.29h-3.851a.334.334,0,1,1,0-.649h3.851a.334.334,0,1,1,0,.649" transform="translate(-13938.585 -16791.229)" fill="#040504"/>
      </g>
      <g id="Group_3552" data-name="Group 3552">
        <g transform="matrix(1, 0, 0, 1, -13197.01, -16366.31)" filter="url(#Path_1142)">
          <path id="Path_1142-2" data-name="Path 1142" d="M724.508,373.591a6.72,6.72,0,0,1,2.173,2.781,7.663,7.663,0,0,1,.535,3.847,7.223,7.223,0,0,1-2.817,5.167,8.188,8.188,0,0,1-6.132,1.424,11,11,0,0,1-7.379-4.881l1.284-1.426c2.21,3.136,3.566,4.134,5.99,4.525a4.661,4.661,0,0,0,3.816-.926,4.239,4.239,0,0,0,1.6-2.851,3.759,3.759,0,0,0-.821-2.885,14.388,14.388,0,0,0-4.136-3.029,29.746,29.746,0,0,1-4.243-2.71,6.979,6.979,0,0,1-2.21-2.886,6.679,6.679,0,0,1-.534-3.527,6.318,6.318,0,0,1,2.459-4.491,6.8,6.8,0,0,1,5.1-1.318,8.708,8.708,0,0,1,3.031.853,8.9,8.9,0,0,1,2.995,2.888l-1.5,1.212a9.082,9.082,0,0,0-.926-1.319,5.356,5.356,0,0,0-3.566-1.887,3.718,3.718,0,0,0-2.995.712,3.494,3.494,0,0,0-1.142,2.209,3.377,3.377,0,0,0,.857,2.674,16.957,16.957,0,0,0,4.171,3.062,45.974,45.974,0,0,1,4.386,2.779" transform="translate(-671.61 -359.34)" fill="#df495b"/>
        </g>
        <g transform="matrix(1, 0, 0, 1, -13197.01, -16366.31)" filter="url(#Path_1143)">
          <path id="Path_1143-2" data-name="Path 1143" d="M782.305,360.108v1.747h-9.811v24.815H767.54V361.854h-9.691v-1.747Z" transform="translate(-702.19 -359.12)" fill="#df495b"/>
        </g>
        <g transform="matrix(1, 0, 0, 1, -13197.01, -16366.31)" filter="url(#Path_1144)">
          <path id="Path_1144-2" data-name="Path 1144" d="M621.21,361.65l-10.51,25.02h-1.745l-11.55-26.56h4.705l9.126,20.856,8.486-20.856H631.8v1.54Z" transform="translate(-596.4 -359.12)" fill="#df495b"/>
        </g>
        <g transform="matrix(1, 0, 0, 1, -13197.01, -16366.31)" filter="url(#Rectangle_2518)">
          <rect id="Rectangle_2518-2" data-name="Rectangle 2518" width="4.56" height="22.852" transform="translate(30.71 4.74)" fill="#df495b"/>
        </g>
        <g transform="matrix(1, 0, 0, 1, -13197.01, -16366.31)" filter="url(#Path_1145)">
          <path id="Path_1145-2" data-name="Path 1145" d="M839.587,386.708h-5.379c-1.586-3.643-9.1-20.389-9.1-20.389l-8.632,20.389H814l11.922-26.6h1.433Z" transform="translate(-739.33 -359.12)" fill="#df495b"/>
        </g>
      </g>
    </g>
  </g>
</svg>
